<mxfile host="app.diagrams.net" modified="2020-05-14T07:35:58.354Z" agent="5.0 (X11; Linux x86_64) AppleWebKit/537.36 (KHTML, like Gecko) snap Chromium/81.0.4044.138 Chrome/81.0.4044.138 Safari/537.36" etag="Cp6bmYYTgHme6QgZKuh5" version="13.1.1" type="github">
  <diagram id="2j0Wj2clr_hK4ZMGOZxE" name="Page-1">
    <mxGraphModel dx="1939" dy="1040" grid="1" gridSize="10" guides="1" tooltips="1" connect="1" arrows="1" fold="1" page="1" pageScale="1" pageWidth="1169" pageHeight="827" math="0" shadow="0">
      <root>
        <mxCell id="0" />
        <mxCell id="1" parent="0" />
        <mxCell id="uQFEA6QVpBDMVat-9isN-144" value="" style="verticalLabelPosition=bottom;verticalAlign=top;html=1;shape=mxgraph.basic.polygon;polyCoords=[[0,0],[0.62,0],[0.62,0.46],[0.8,0.46],[0.8,1],[0.25,1],[0,1],[0,0]];polyline=1;fillColor=none;rounded=1;shadow=1;dashed=1;labelBackgroundColor=none;fontSize=20;fontColor=#000000;opacity=50;" vertex="1" parent="1">
          <mxGeometry x="44" y="70" width="555" height="730" as="geometry" />
        </mxCell>
        <mxCell id="uQFEA6QVpBDMVat-9isN-12" value="" style="edgeStyle=orthogonalEdgeStyle;rounded=0;orthogonalLoop=1;jettySize=auto;html=1;" edge="1" parent="1" source="uQFEA6QVpBDMVat-9isN-2" target="uQFEA6QVpBDMVat-9isN-11">
          <mxGeometry relative="1" as="geometry" />
        </mxCell>
        <mxCell id="uQFEA6QVpBDMVat-9isN-2" value="608*608*3" style="rounded=1;whiteSpace=wrap;html=1;fillColor=#e1d5e7;strokeColor=#9673a6;labelBackgroundColor=none;fontStyle=1" vertex="1" parent="1">
          <mxGeometry x="80" y="720" width="360" height="40" as="geometry" />
        </mxCell>
        <mxCell id="uQFEA6QVpBDMVat-9isN-15" value="" style="edgeStyle=orthogonalEdgeStyle;rounded=0;orthogonalLoop=1;jettySize=auto;html=1;" edge="1" parent="1" source="uQFEA6QVpBDMVat-9isN-11" target="uQFEA6QVpBDMVat-9isN-3">
          <mxGeometry relative="1" as="geometry" />
        </mxCell>
        <mxCell id="uQFEA6QVpBDMVat-9isN-11" value="DBM*1" style="rounded=1;whiteSpace=wrap;html=1;fillColor=#d5e8d4;strokeColor=#82b366;" vertex="1" parent="1">
          <mxGeometry x="200" y="640" width="120" height="40" as="geometry" />
        </mxCell>
        <mxCell id="uQFEA6QVpBDMVat-9isN-6" value="" style="edgeStyle=orthogonalEdgeStyle;rounded=0;orthogonalLoop=1;jettySize=auto;html=1;" edge="1" parent="1" source="uQFEA6QVpBDMVat-9isN-3" target="uQFEA6QVpBDMVat-9isN-5">
          <mxGeometry relative="1" as="geometry" />
        </mxCell>
        <mxCell id="uQFEA6QVpBDMVat-9isN-3" value="CSP_ResBlock*1" style="rounded=1;whiteSpace=wrap;html=1;fillColor=#e1d5e7;strokeColor=#9673a6;labelBackgroundColor=none;fontStyle=1" vertex="1" parent="1">
          <mxGeometry x="100" y="560" width="320" height="40" as="geometry" />
        </mxCell>
        <mxCell id="uQFEA6QVpBDMVat-9isN-8" value="" style="edgeStyle=orthogonalEdgeStyle;rounded=0;orthogonalLoop=1;jettySize=auto;html=1;" edge="1" parent="1" source="uQFEA6QVpBDMVat-9isN-5" target="uQFEA6QVpBDMVat-9isN-7">
          <mxGeometry relative="1" as="geometry" />
        </mxCell>
        <mxCell id="uQFEA6QVpBDMVat-9isN-5" value="&lt;span&gt;CSP_ResBlock*2&lt;/span&gt;" style="rounded=1;whiteSpace=wrap;html=1;fillColor=#e1d5e7;strokeColor=#9673a6;labelBackgroundColor=none;fontStyle=1" vertex="1" parent="1">
          <mxGeometry x="120" y="440" width="280" height="40" as="geometry" />
        </mxCell>
        <mxCell id="uQFEA6QVpBDMVat-9isN-10" value="" style="edgeStyle=orthogonalEdgeStyle;rounded=0;orthogonalLoop=1;jettySize=auto;html=1;" edge="1" parent="1" source="uQFEA6QVpBDMVat-9isN-7" target="uQFEA6QVpBDMVat-9isN-9">
          <mxGeometry relative="1" as="geometry" />
        </mxCell>
        <mxCell id="uQFEA6QVpBDMVat-9isN-35" style="edgeStyle=orthogonalEdgeStyle;rounded=0;orthogonalLoop=1;jettySize=auto;html=1;entryX=0;entryY=0.5;entryDx=0;entryDy=0;fontColor=#000000;" edge="1" parent="1" source="uQFEA6QVpBDMVat-9isN-7" target="uQFEA6QVpBDMVat-9isN-32">
          <mxGeometry relative="1" as="geometry">
            <Array as="points">
              <mxPoint x="260" y="280" />
            </Array>
          </mxGeometry>
        </mxCell>
        <mxCell id="uQFEA6QVpBDMVat-9isN-7" value="&lt;span style=&quot;color: rgb(0, 0, 0); font-family: helvetica; font-size: 12px; font-style: normal; letter-spacing: normal; text-align: center; text-indent: 0px; text-transform: none; word-spacing: 0px; float: none; display: inline;&quot;&gt;CSP_ResBlock*8&lt;/span&gt;" style="rounded=1;whiteSpace=wrap;html=1;fillColor=#e1d5e7;strokeColor=#9673a6;labelBackgroundColor=none;fontStyle=1" vertex="1" parent="1">
          <mxGeometry x="140" y="320" width="240" height="40" as="geometry" />
        </mxCell>
        <mxCell id="uQFEA6QVpBDMVat-9isN-14" value="" style="edgeStyle=orthogonalEdgeStyle;rounded=0;orthogonalLoop=1;jettySize=auto;html=1;" edge="1" parent="1" source="uQFEA6QVpBDMVat-9isN-9" target="uQFEA6QVpBDMVat-9isN-13">
          <mxGeometry relative="1" as="geometry" />
        </mxCell>
        <mxCell id="uQFEA6QVpBDMVat-9isN-26" style="edgeStyle=orthogonalEdgeStyle;rounded=0;orthogonalLoop=1;jettySize=auto;html=1;fontColor=#000000;entryX=0;entryY=0.5;entryDx=0;entryDy=0;" edge="1" parent="1" source="uQFEA6QVpBDMVat-9isN-9" target="uQFEA6QVpBDMVat-9isN-27">
          <mxGeometry relative="1" as="geometry">
            <mxPoint x="400" y="160" as="targetPoint" />
            <Array as="points">
              <mxPoint x="260" y="160" />
            </Array>
          </mxGeometry>
        </mxCell>
        <mxCell id="uQFEA6QVpBDMVat-9isN-9" value="&lt;span style=&quot;color: rgb(0, 0, 0); font-family: helvetica; font-size: 12px; font-style: normal; letter-spacing: normal; text-align: center; text-indent: 0px; text-transform: none; word-spacing: 0px; float: none; display: inline;&quot;&gt;CSP_ResBlock*8&lt;/span&gt;" style="rounded=1;whiteSpace=wrap;html=1;fillColor=#e1d5e7;strokeColor=#9673a6;labelBackgroundColor=none;fontStyle=1" vertex="1" parent="1">
          <mxGeometry x="160" y="200" width="200" height="40" as="geometry" />
        </mxCell>
        <mxCell id="uQFEA6QVpBDMVat-9isN-23" value="" style="edgeStyle=orthogonalEdgeStyle;rounded=0;orthogonalLoop=1;jettySize=auto;html=1;fontColor=#000000;" edge="1" parent="1" source="uQFEA6QVpBDMVat-9isN-13" target="uQFEA6QVpBDMVat-9isN-17">
          <mxGeometry relative="1" as="geometry" />
        </mxCell>
        <mxCell id="uQFEA6QVpBDMVat-9isN-13" value="&lt;span style=&quot;font-family: helvetica; font-size: 12px; font-style: normal; letter-spacing: normal; text-align: center; text-indent: 0px; text-transform: none; word-spacing: 0px; float: none; display: inline;&quot;&gt;CSP_ResBlock*4&lt;/span&gt;" style="rounded=1;whiteSpace=wrap;html=1;fillColor=#e1d5e7;strokeColor=#9673a6;shadow=1;fontColor=#000000;labelBackgroundColor=none;fontStyle=1" vertex="1" parent="1">
          <mxGeometry x="180" y="80" width="160" height="40" as="geometry" />
        </mxCell>
        <mxCell id="uQFEA6QVpBDMVat-9isN-21" value="" style="edgeStyle=orthogonalEdgeStyle;rounded=0;orthogonalLoop=1;jettySize=auto;html=1;fontColor=#000000;" edge="1" parent="1" source="uQFEA6QVpBDMVat-9isN-17" target="uQFEA6QVpBDMVat-9isN-20">
          <mxGeometry relative="1" as="geometry" />
        </mxCell>
        <mxCell id="uQFEA6QVpBDMVat-9isN-17" value="DBM*3" style="rounded=1;whiteSpace=wrap;html=1;fillColor=#d5e8d4;strokeColor=#82b366;" vertex="1" parent="1">
          <mxGeometry x="200" y="20" width="120" height="40" as="geometry" />
        </mxCell>
        <mxCell id="uQFEA6QVpBDMVat-9isN-22" value="" style="edgeStyle=orthogonalEdgeStyle;rounded=0;orthogonalLoop=1;jettySize=auto;html=1;fontColor=#000000;" edge="1" parent="1" source="uQFEA6QVpBDMVat-9isN-20" target="uQFEA6QVpBDMVat-9isN-18">
          <mxGeometry relative="1" as="geometry" />
        </mxCell>
        <mxCell id="uQFEA6QVpBDMVat-9isN-20" value="SPP Block" style="rounded=1;whiteSpace=wrap;html=1;fillColor=#ffe6cc;strokeColor=#d79b00;" vertex="1" parent="1">
          <mxGeometry x="400" y="20" width="120" height="40" as="geometry" />
        </mxCell>
        <mxCell id="uQFEA6QVpBDMVat-9isN-25" value="" style="edgeStyle=orthogonalEdgeStyle;rounded=0;orthogonalLoop=1;jettySize=auto;html=1;fontColor=#000000;entryX=0.5;entryY=0;entryDx=0;entryDy=0;" edge="1" parent="1" source="uQFEA6QVpBDMVat-9isN-18" target="uQFEA6QVpBDMVat-9isN-28">
          <mxGeometry relative="1" as="geometry">
            <mxPoint x="440" y="-140" as="targetPoint" />
          </mxGeometry>
        </mxCell>
        <mxCell id="uQFEA6QVpBDMVat-9isN-142" value="" style="edgeStyle=orthogonalEdgeStyle;rounded=0;orthogonalLoop=1;jettySize=auto;html=1;fontSize=16;fontColor=#000000;" edge="1" parent="1" source="uQFEA6QVpBDMVat-9isN-18" target="uQFEA6QVpBDMVat-9isN-53">
          <mxGeometry relative="1" as="geometry" />
        </mxCell>
        <mxCell id="uQFEA6QVpBDMVat-9isN-18" value="DBM*3" style="rounded=1;whiteSpace=wrap;html=1;fillColor=#d5e8d4;strokeColor=#82b366;" vertex="1" parent="1">
          <mxGeometry x="600" y="20" width="120" height="40" as="geometry" />
        </mxCell>
        <mxCell id="uQFEA6QVpBDMVat-9isN-29" value="" style="edgeStyle=orthogonalEdgeStyle;rounded=0;orthogonalLoop=1;jettySize=auto;html=1;fontColor=#000000;" edge="1" parent="1" source="uQFEA6QVpBDMVat-9isN-27" target="uQFEA6QVpBDMVat-9isN-28">
          <mxGeometry relative="1" as="geometry" />
        </mxCell>
        <mxCell id="uQFEA6QVpBDMVat-9isN-27" value="DBL*1" style="rounded=1;whiteSpace=wrap;html=1;fillColor=#dae8fc;strokeColor=#6c8ebf;" vertex="1" parent="1">
          <mxGeometry x="400" y="140" width="120" height="40" as="geometry" />
        </mxCell>
        <mxCell id="uQFEA6QVpBDMVat-9isN-37" value="" style="edgeStyle=orthogonalEdgeStyle;rounded=0;orthogonalLoop=1;jettySize=auto;html=1;fontColor=#000000;" edge="1" parent="1" source="uQFEA6QVpBDMVat-9isN-28" target="uQFEA6QVpBDMVat-9isN-31">
          <mxGeometry relative="1" as="geometry" />
        </mxCell>
        <mxCell id="uQFEA6QVpBDMVat-9isN-141" value="" style="edgeStyle=orthogonalEdgeStyle;rounded=0;orthogonalLoop=1;jettySize=auto;html=1;fontSize=16;fontColor=#000000;" edge="1" parent="1" source="uQFEA6QVpBDMVat-9isN-28" target="uQFEA6QVpBDMVat-9isN-46">
          <mxGeometry relative="1" as="geometry" />
        </mxCell>
        <mxCell id="uQFEA6QVpBDMVat-9isN-28" value="Concat&amp;amp;DBL*5" style="rounded=1;whiteSpace=wrap;html=1;fillColor=#1ba1e2;strokeColor=#006EAF;fontColor=#ffffff;" vertex="1" parent="1">
          <mxGeometry x="600" y="140" width="120" height="40" as="geometry" />
        </mxCell>
        <mxCell id="uQFEA6QVpBDMVat-9isN-66" style="edgeStyle=orthogonalEdgeStyle;rounded=0;orthogonalLoop=1;jettySize=auto;html=1;fontColor=#000000;" edge="1" parent="1" source="uQFEA6QVpBDMVat-9isN-53" target="uQFEA6QVpBDMVat-9isN-64">
          <mxGeometry relative="1" as="geometry" />
        </mxCell>
        <mxCell id="uQFEA6QVpBDMVat-9isN-53" value="Concat&amp;amp;DBL*5" style="rounded=1;whiteSpace=wrap;html=1;fillColor=#1ba1e2;strokeColor=#006EAF;fontColor=#ffffff;" vertex="1" parent="1">
          <mxGeometry x="800" y="20" width="120" height="40" as="geometry" />
        </mxCell>
        <mxCell id="uQFEA6QVpBDMVat-9isN-47" value="" style="edgeStyle=orthogonalEdgeStyle;rounded=0;orthogonalLoop=1;jettySize=auto;html=1;fontColor=#000000;entryX=0.5;entryY=1;entryDx=0;entryDy=0;" edge="1" parent="1" source="uQFEA6QVpBDMVat-9isN-31" target="uQFEA6QVpBDMVat-9isN-48">
          <mxGeometry relative="1" as="geometry" />
        </mxCell>
        <mxCell id="uQFEA6QVpBDMVat-9isN-31" value="Concat&amp;amp;DBL*5" style="rounded=1;whiteSpace=wrap;html=1;fillColor=#1ba1e2;strokeColor=#006EAF;fontColor=#ffffff;" vertex="1" parent="1">
          <mxGeometry x="600" y="260" width="120" height="40" as="geometry" />
        </mxCell>
        <mxCell id="uQFEA6QVpBDMVat-9isN-57" style="edgeStyle=orthogonalEdgeStyle;rounded=0;orthogonalLoop=1;jettySize=auto;html=1;entryX=0.5;entryY=1;entryDx=0;entryDy=0;fontColor=#000000;" edge="1" parent="1" source="uQFEA6QVpBDMVat-9isN-46" target="uQFEA6QVpBDMVat-9isN-55">
          <mxGeometry relative="1" as="geometry" />
        </mxCell>
        <mxCell id="uQFEA6QVpBDMVat-9isN-65" style="edgeStyle=orthogonalEdgeStyle;rounded=0;orthogonalLoop=1;jettySize=auto;html=1;entryX=0;entryY=0.5;entryDx=0;entryDy=0;fontColor=#000000;" edge="1" parent="1" source="uQFEA6QVpBDMVat-9isN-46" target="uQFEA6QVpBDMVat-9isN-63">
          <mxGeometry relative="1" as="geometry" />
        </mxCell>
        <mxCell id="uQFEA6QVpBDMVat-9isN-46" value="Concat&amp;amp;DBL*5" style="rounded=1;whiteSpace=wrap;html=1;fillColor=#1ba1e2;strokeColor=#006EAF;fontColor=#ffffff;" vertex="1" parent="1">
          <mxGeometry x="800" y="140" width="120" height="40" as="geometry" />
        </mxCell>
        <mxCell id="uQFEA6QVpBDMVat-9isN-36" value="" style="edgeStyle=orthogonalEdgeStyle;rounded=0;orthogonalLoop=1;jettySize=auto;html=1;fontColor=#000000;" edge="1" parent="1" source="uQFEA6QVpBDMVat-9isN-32" target="uQFEA6QVpBDMVat-9isN-31">
          <mxGeometry relative="1" as="geometry" />
        </mxCell>
        <mxCell id="uQFEA6QVpBDMVat-9isN-32" value="DBL*1" style="rounded=1;whiteSpace=wrap;html=1;fillColor=#dae8fc;strokeColor=#6c8ebf;" vertex="1" parent="1">
          <mxGeometry x="400" y="260" width="120" height="40" as="geometry" />
        </mxCell>
        <mxCell id="uQFEA6QVpBDMVat-9isN-59" style="edgeStyle=orthogonalEdgeStyle;rounded=0;orthogonalLoop=1;jettySize=auto;html=1;fontColor=#000000;" edge="1" parent="1">
          <mxGeometry relative="1" as="geometry">
            <mxPoint x="1000" y="280" as="targetPoint" />
            <mxPoint x="720" y="280" as="sourcePoint" />
          </mxGeometry>
        </mxCell>
        <mxCell id="uQFEA6QVpBDMVat-9isN-52" style="edgeStyle=orthogonalEdgeStyle;rounded=0;orthogonalLoop=1;jettySize=auto;html=1;entryX=0.5;entryY=1;entryDx=0;entryDy=0;fontColor=#000000;" edge="1" parent="1" source="uQFEA6QVpBDMVat-9isN-48" target="uQFEA6QVpBDMVat-9isN-46">
          <mxGeometry relative="1" as="geometry" />
        </mxCell>
        <mxCell id="uQFEA6QVpBDMVat-9isN-48" value="DBL*1" style="rounded=1;whiteSpace=wrap;html=1;fillColor=#dae8fc;strokeColor=#6c8ebf;" vertex="1" parent="1">
          <mxGeometry x="800" y="200" width="120" height="40" as="geometry" />
        </mxCell>
        <mxCell id="uQFEA6QVpBDMVat-9isN-58" style="edgeStyle=orthogonalEdgeStyle;rounded=0;orthogonalLoop=1;jettySize=auto;html=1;entryX=0.5;entryY=1;entryDx=0;entryDy=0;fontColor=#000000;" edge="1" parent="1" source="uQFEA6QVpBDMVat-9isN-55" target="uQFEA6QVpBDMVat-9isN-53">
          <mxGeometry relative="1" as="geometry" />
        </mxCell>
        <mxCell id="uQFEA6QVpBDMVat-9isN-55" value="DBL*1" style="rounded=1;whiteSpace=wrap;html=1;fillColor=#dae8fc;strokeColor=#6c8ebf;" vertex="1" parent="1">
          <mxGeometry x="800" y="80" width="120" height="40" as="geometry" />
        </mxCell>
        <mxCell id="uQFEA6QVpBDMVat-9isN-72" value="" style="edgeStyle=orthogonalEdgeStyle;rounded=0;orthogonalLoop=1;jettySize=auto;html=1;fontColor=#000000;" edge="1" parent="1" source="uQFEA6QVpBDMVat-9isN-60" target="uQFEA6QVpBDMVat-9isN-70">
          <mxGeometry relative="1" as="geometry" />
        </mxCell>
        <mxCell id="uQFEA6QVpBDMVat-9isN-60" value="DBL*1+Conv" style="rounded=1;whiteSpace=wrap;html=1;fillColor=#fff2cc;strokeColor=#d6b656;" vertex="1" parent="1">
          <mxGeometry x="1000" y="260" width="120" height="40" as="geometry" />
        </mxCell>
        <mxCell id="uQFEA6QVpBDMVat-9isN-71" value="" style="edgeStyle=orthogonalEdgeStyle;rounded=0;orthogonalLoop=1;jettySize=auto;html=1;fontColor=#000000;" edge="1" parent="1" source="uQFEA6QVpBDMVat-9isN-63" target="uQFEA6QVpBDMVat-9isN-69">
          <mxGeometry relative="1" as="geometry" />
        </mxCell>
        <mxCell id="uQFEA6QVpBDMVat-9isN-63" value="DBL*1+Conv" style="rounded=1;whiteSpace=wrap;html=1;fillColor=#fff2cc;strokeColor=#d6b656;" vertex="1" parent="1">
          <mxGeometry x="1000" y="140" width="120" height="40" as="geometry" />
        </mxCell>
        <mxCell id="uQFEA6QVpBDMVat-9isN-68" value="" style="edgeStyle=orthogonalEdgeStyle;rounded=0;orthogonalLoop=1;jettySize=auto;html=1;fontColor=#000000;" edge="1" parent="1" source="uQFEA6QVpBDMVat-9isN-64" target="uQFEA6QVpBDMVat-9isN-67">
          <mxGeometry relative="1" as="geometry" />
        </mxCell>
        <mxCell id="uQFEA6QVpBDMVat-9isN-64" value="DBL*1+Conv" style="rounded=1;whiteSpace=wrap;html=1;fillColor=#fff2cc;strokeColor=#d6b656;" vertex="1" parent="1">
          <mxGeometry x="1000" y="20" width="120" height="40" as="geometry" />
        </mxCell>
        <mxCell id="uQFEA6QVpBDMVat-9isN-67" value="Y19(19*19*255)" style="rounded=1;whiteSpace=wrap;html=1;fillColor=#76608a;strokeColor=#432D57;fontColor=#ffffff;" vertex="1" parent="1">
          <mxGeometry x="1200" y="20" width="120" height="40" as="geometry" />
        </mxCell>
        <mxCell id="uQFEA6QVpBDMVat-9isN-69" value="Y38(38*38*255)" style="rounded=1;whiteSpace=wrap;html=1;fillColor=#76608a;strokeColor=#432D57;fontColor=#ffffff;" vertex="1" parent="1">
          <mxGeometry x="1200" y="140" width="120" height="40" as="geometry" />
        </mxCell>
        <mxCell id="uQFEA6QVpBDMVat-9isN-70" value="Y76(76*76*255)" style="rounded=1;whiteSpace=wrap;html=1;fillColor=#76608a;strokeColor=#432D57;fontColor=#ffffff;" vertex="1" parent="1">
          <mxGeometry x="1200" y="260" width="120" height="40" as="geometry" />
        </mxCell>
        <mxCell id="uQFEA6QVpBDMVat-9isN-73" value="&lt;span style=&quot;font-family: &amp;#34;helvetica&amp;#34; ; font-size: 12px ; font-style: normal ; letter-spacing: normal ; text-align: center ; text-indent: 0px ; text-transform: none ; word-spacing: 0px ; float: none ; display: inline&quot;&gt;CSP_ResBlock*n&lt;/span&gt;" style="rounded=1;whiteSpace=wrap;html=1;fillColor=#e1d5e7;strokeColor=#9673a6;shadow=1;fontColor=#000000;labelBackgroundColor=none;fontStyle=1" vertex="1" parent="1">
          <mxGeometry x="89" y="860" width="160" height="40" as="geometry" />
        </mxCell>
        <mxCell id="uQFEA6QVpBDMVat-9isN-74" value="=" style="text;html=1;align=center;verticalAlign=middle;resizable=0;points=[];autosize=1;fontColor=#000000;fontSize=30;" vertex="1" parent="1">
          <mxGeometry x="274" y="860" width="30" height="40" as="geometry" />
        </mxCell>
        <mxCell id="uQFEA6QVpBDMVat-9isN-80" value="" style="edgeStyle=orthogonalEdgeStyle;rounded=0;orthogonalLoop=1;jettySize=auto;html=1;fontSize=30;fontColor=#000000;" edge="1" parent="1" source="uQFEA6QVpBDMVat-9isN-75" target="uQFEA6QVpBDMVat-9isN-78">
          <mxGeometry relative="1" as="geometry" />
        </mxCell>
        <mxCell id="uQFEA6QVpBDMVat-9isN-75" value="ZeroPadding" style="rounded=1;whiteSpace=wrap;html=1;" vertex="1" parent="1">
          <mxGeometry x="319" y="860" width="120" height="40" as="geometry" />
        </mxCell>
        <mxCell id="uQFEA6QVpBDMVat-9isN-84" style="edgeStyle=orthogonalEdgeStyle;rounded=0;orthogonalLoop=1;jettySize=auto;html=1;entryX=0;entryY=0.5;entryDx=0;entryDy=0;fontSize=30;fontColor=#000000;" edge="1" parent="1" source="uQFEA6QVpBDMVat-9isN-78" target="uQFEA6QVpBDMVat-9isN-82">
          <mxGeometry relative="1" as="geometry" />
        </mxCell>
        <mxCell id="uQFEA6QVpBDMVat-9isN-85" style="edgeStyle=orthogonalEdgeStyle;rounded=0;orthogonalLoop=1;jettySize=auto;html=1;entryX=0;entryY=0.5;entryDx=0;entryDy=0;fontSize=30;fontColor=#000000;" edge="1" parent="1" source="uQFEA6QVpBDMVat-9isN-78" target="uQFEA6QVpBDMVat-9isN-83">
          <mxGeometry relative="1" as="geometry" />
        </mxCell>
        <mxCell id="uQFEA6QVpBDMVat-9isN-78" value="DBM*1" style="rounded=1;whiteSpace=wrap;html=1;fillColor=#d5e8d4;strokeColor=#82b366;" vertex="1" parent="1">
          <mxGeometry x="479" y="860" width="120" height="40" as="geometry" />
        </mxCell>
        <mxCell id="uQFEA6QVpBDMVat-9isN-92" style="edgeStyle=orthogonalEdgeStyle;rounded=0;orthogonalLoop=1;jettySize=auto;html=1;entryX=0;entryY=0.25;entryDx=0;entryDy=0;fontSize=30;fontColor=#000000;" edge="1" parent="1" source="uQFEA6QVpBDMVat-9isN-82" target="uQFEA6QVpBDMVat-9isN-91">
          <mxGeometry relative="1" as="geometry" />
        </mxCell>
        <mxCell id="uQFEA6QVpBDMVat-9isN-82" value="DBM*1" style="rounded=1;whiteSpace=wrap;html=1;fillColor=#d5e8d4;strokeColor=#82b366;" vertex="1" parent="1">
          <mxGeometry x="639" y="860" width="120" height="20" as="geometry" />
        </mxCell>
        <mxCell id="uQFEA6QVpBDMVat-9isN-87" value="" style="edgeStyle=orthogonalEdgeStyle;rounded=0;orthogonalLoop=1;jettySize=auto;html=1;fontSize=30;fontColor=#000000;" edge="1" parent="1" source="uQFEA6QVpBDMVat-9isN-83" target="uQFEA6QVpBDMVat-9isN-86">
          <mxGeometry relative="1" as="geometry" />
        </mxCell>
        <mxCell id="uQFEA6QVpBDMVat-9isN-83" value="DBM*1" style="rounded=1;whiteSpace=wrap;html=1;fillColor=#d5e8d4;strokeColor=#82b366;" vertex="1" parent="1">
          <mxGeometry x="639" y="880" width="120" height="20" as="geometry" />
        </mxCell>
        <mxCell id="uQFEA6QVpBDMVat-9isN-89" value="" style="edgeStyle=orthogonalEdgeStyle;rounded=0;orthogonalLoop=1;jettySize=auto;html=1;fontSize=30;fontColor=#000000;" edge="1" parent="1" source="uQFEA6QVpBDMVat-9isN-86" target="uQFEA6QVpBDMVat-9isN-88">
          <mxGeometry relative="1" as="geometry" />
        </mxCell>
        <mxCell id="uQFEA6QVpBDMVat-9isN-86" value="ResUnit*n" style="rounded=1;whiteSpace=wrap;html=1;fillColor=#a0522d;strokeColor=#6D1F00;fontColor=#ffffff;" vertex="1" parent="1">
          <mxGeometry x="799" y="880" width="120" height="20" as="geometry" />
        </mxCell>
        <mxCell id="uQFEA6QVpBDMVat-9isN-94" style="edgeStyle=orthogonalEdgeStyle;rounded=0;orthogonalLoop=1;jettySize=auto;html=1;entryX=0;entryY=0.75;entryDx=0;entryDy=0;fontSize=30;fontColor=#000000;" edge="1" parent="1" source="uQFEA6QVpBDMVat-9isN-88" target="uQFEA6QVpBDMVat-9isN-91">
          <mxGeometry relative="1" as="geometry" />
        </mxCell>
        <mxCell id="uQFEA6QVpBDMVat-9isN-88" value="DBM*1" style="rounded=1;whiteSpace=wrap;html=1;fillColor=#d5e8d4;strokeColor=#82b366;" vertex="1" parent="1">
          <mxGeometry x="959" y="880" width="120" height="20" as="geometry" />
        </mxCell>
        <mxCell id="uQFEA6QVpBDMVat-9isN-91" value="Concat&amp;amp;DBM*1" style="rounded=1;whiteSpace=wrap;html=1;fillColor=#60a917;strokeColor=#2D7600;fontColor=#ffffff;" vertex="1" parent="1">
          <mxGeometry x="1100" y="860" width="120" height="40" as="geometry" />
        </mxCell>
        <mxCell id="uQFEA6QVpBDMVat-9isN-98" value="DBM" style="rounded=1;whiteSpace=wrap;html=1;fillColor=#d5e8d4;strokeColor=#82b366;" vertex="1" parent="1">
          <mxGeometry x="100" y="940" width="120" height="40" as="geometry" />
        </mxCell>
        <mxCell id="uQFEA6QVpBDMVat-9isN-99" value="=" style="text;html=1;align=center;verticalAlign=middle;resizable=0;points=[];autosize=1;fontColor=#000000;fontSize=30;" vertex="1" parent="1">
          <mxGeometry x="274" y="940" width="30" height="40" as="geometry" />
        </mxCell>
        <mxCell id="uQFEA6QVpBDMVat-9isN-102" value="" style="edgeStyle=orthogonalEdgeStyle;rounded=0;orthogonalLoop=1;jettySize=auto;html=1;fontSize=30;fontColor=#000000;" edge="1" parent="1" source="uQFEA6QVpBDMVat-9isN-100" target="uQFEA6QVpBDMVat-9isN-101">
          <mxGeometry relative="1" as="geometry" />
        </mxCell>
        <mxCell id="uQFEA6QVpBDMVat-9isN-100" value="Conv" style="rounded=1;whiteSpace=wrap;html=1;" vertex="1" parent="1">
          <mxGeometry x="319" y="940" width="120" height="40" as="geometry" />
        </mxCell>
        <mxCell id="uQFEA6QVpBDMVat-9isN-104" value="" style="edgeStyle=orthogonalEdgeStyle;rounded=0;orthogonalLoop=1;jettySize=auto;html=1;fontSize=30;fontColor=#000000;" edge="1" parent="1" source="uQFEA6QVpBDMVat-9isN-101" target="uQFEA6QVpBDMVat-9isN-103">
          <mxGeometry relative="1" as="geometry" />
        </mxCell>
        <mxCell id="uQFEA6QVpBDMVat-9isN-101" value="BN" style="rounded=1;whiteSpace=wrap;html=1;" vertex="1" parent="1">
          <mxGeometry x="480" y="940" width="120" height="40" as="geometry" />
        </mxCell>
        <mxCell id="uQFEA6QVpBDMVat-9isN-103" value="Mish" style="rounded=1;whiteSpace=wrap;html=1;" vertex="1" parent="1">
          <mxGeometry x="640" y="940" width="120" height="40" as="geometry" />
        </mxCell>
        <mxCell id="uQFEA6QVpBDMVat-9isN-107" value="DBL" style="rounded=1;whiteSpace=wrap;html=1;fillColor=#dae8fc;strokeColor=#6c8ebf;" vertex="1" parent="1">
          <mxGeometry x="99" y="1020" width="120" height="40" as="geometry" />
        </mxCell>
        <mxCell id="uQFEA6QVpBDMVat-9isN-108" value="=" style="text;html=1;align=center;verticalAlign=middle;resizable=0;points=[];autosize=1;fontColor=#000000;fontSize=30;" vertex="1" parent="1">
          <mxGeometry x="273" y="1020" width="30" height="40" as="geometry" />
        </mxCell>
        <mxCell id="uQFEA6QVpBDMVat-9isN-109" value="" style="edgeStyle=orthogonalEdgeStyle;rounded=0;orthogonalLoop=1;jettySize=auto;html=1;fontSize=30;fontColor=#000000;" edge="1" source="uQFEA6QVpBDMVat-9isN-110" target="uQFEA6QVpBDMVat-9isN-112" parent="1">
          <mxGeometry relative="1" as="geometry" />
        </mxCell>
        <mxCell id="uQFEA6QVpBDMVat-9isN-110" value="Conv" style="rounded=1;whiteSpace=wrap;html=1;" vertex="1" parent="1">
          <mxGeometry x="318" y="1020" width="120" height="40" as="geometry" />
        </mxCell>
        <mxCell id="uQFEA6QVpBDMVat-9isN-111" value="" style="edgeStyle=orthogonalEdgeStyle;rounded=0;orthogonalLoop=1;jettySize=auto;html=1;fontSize=30;fontColor=#000000;" edge="1" source="uQFEA6QVpBDMVat-9isN-112" target="uQFEA6QVpBDMVat-9isN-113" parent="1">
          <mxGeometry relative="1" as="geometry" />
        </mxCell>
        <mxCell id="uQFEA6QVpBDMVat-9isN-112" value="BN" style="rounded=1;whiteSpace=wrap;html=1;" vertex="1" parent="1">
          <mxGeometry x="479" y="1020" width="120" height="40" as="geometry" />
        </mxCell>
        <mxCell id="uQFEA6QVpBDMVat-9isN-113" value="Leaky relu" style="rounded=1;whiteSpace=wrap;html=1;" vertex="1" parent="1">
          <mxGeometry x="639" y="1020" width="120" height="40" as="geometry" />
        </mxCell>
        <mxCell id="uQFEA6QVpBDMVat-9isN-114" value="ResUnit" style="rounded=1;whiteSpace=wrap;html=1;fillColor=#a0522d;strokeColor=#6D1F00;fontColor=#ffffff;" vertex="1" parent="1">
          <mxGeometry x="100" y="1100" width="120" height="40" as="geometry" />
        </mxCell>
        <mxCell id="uQFEA6QVpBDMVat-9isN-115" value="=" style="text;html=1;align=center;verticalAlign=middle;resizable=0;points=[];autosize=1;fontColor=#000000;fontSize=30;" vertex="1" parent="1">
          <mxGeometry x="273" y="1100" width="30" height="40" as="geometry" />
        </mxCell>
        <mxCell id="uQFEA6QVpBDMVat-9isN-118" value="" style="edgeStyle=orthogonalEdgeStyle;rounded=0;orthogonalLoop=1;jettySize=auto;html=1;fontSize=30;fontColor=#000000;" edge="1" parent="1" source="uQFEA6QVpBDMVat-9isN-116" target="uQFEA6QVpBDMVat-9isN-117">
          <mxGeometry relative="1" as="geometry" />
        </mxCell>
        <mxCell id="uQFEA6QVpBDMVat-9isN-122" style="edgeStyle=orthogonalEdgeStyle;rounded=0;orthogonalLoop=1;jettySize=auto;html=1;fontSize=30;fontColor=#000000;entryX=0.5;entryY=1;entryDx=0;entryDy=0;" edge="1" parent="1" source="uQFEA6QVpBDMVat-9isN-116" target="uQFEA6QVpBDMVat-9isN-123">
          <mxGeometry relative="1" as="geometry">
            <mxPoint x="640" y="1120" as="targetPoint" />
            <Array as="points">
              <mxPoint x="310" y="1120" />
              <mxPoint x="310" y="1160" />
              <mxPoint x="700" y="1160" />
            </Array>
          </mxGeometry>
        </mxCell>
        <mxCell id="uQFEA6QVpBDMVat-9isN-116" value="DBM" style="rounded=1;whiteSpace=wrap;html=1;fillColor=#d5e8d4;strokeColor=#82b366;" vertex="1" parent="1">
          <mxGeometry x="319" y="1100" width="120" height="40" as="geometry" />
        </mxCell>
        <mxCell id="uQFEA6QVpBDMVat-9isN-120" value="" style="edgeStyle=orthogonalEdgeStyle;rounded=0;orthogonalLoop=1;jettySize=auto;html=1;fontSize=30;fontColor=#000000;" edge="1" parent="1" source="uQFEA6QVpBDMVat-9isN-117">
          <mxGeometry relative="1" as="geometry">
            <mxPoint x="680" y="1120" as="targetPoint" />
          </mxGeometry>
        </mxCell>
        <mxCell id="uQFEA6QVpBDMVat-9isN-117" value="DBM" style="rounded=1;whiteSpace=wrap;html=1;fillColor=#d5e8d4;strokeColor=#82b366;" vertex="1" parent="1">
          <mxGeometry x="480" y="1100" width="120" height="40" as="geometry" />
        </mxCell>
        <mxCell id="uQFEA6QVpBDMVat-9isN-123" value="Add" style="rounded=1;whiteSpace=wrap;html=1;" vertex="1" parent="1">
          <mxGeometry x="640" y="1100" width="120" height="40" as="geometry" />
        </mxCell>
        <mxCell id="uQFEA6QVpBDMVat-9isN-124" value="SPP Block" style="rounded=1;whiteSpace=wrap;html=1;fillColor=#ffe6cc;strokeColor=#d79b00;" vertex="1" parent="1">
          <mxGeometry x="99" y="1260" width="120" height="40" as="geometry" />
        </mxCell>
        <mxCell id="uQFEA6QVpBDMVat-9isN-125" value="=" style="text;html=1;align=center;verticalAlign=middle;resizable=0;points=[];autosize=1;fontColor=#000000;fontSize=30;" vertex="1" parent="1">
          <mxGeometry x="273" y="1260" width="30" height="40" as="geometry" />
        </mxCell>
        <mxCell id="uQFEA6QVpBDMVat-9isN-132" style="edgeStyle=orthogonalEdgeStyle;rounded=0;orthogonalLoop=1;jettySize=auto;html=1;fontSize=30;fontColor=#000000;" edge="1" parent="1" source="uQFEA6QVpBDMVat-9isN-127" target="uQFEA6QVpBDMVat-9isN-130">
          <mxGeometry relative="1" as="geometry" />
        </mxCell>
        <mxCell id="uQFEA6QVpBDMVat-9isN-127" value="MaxPooling(13*13)" style="rounded=1;whiteSpace=wrap;html=1;" vertex="1" parent="1">
          <mxGeometry x="318" y="1201" width="120" height="40" as="geometry" />
        </mxCell>
        <mxCell id="uQFEA6QVpBDMVat-9isN-131" value="" style="edgeStyle=orthogonalEdgeStyle;rounded=0;orthogonalLoop=1;jettySize=auto;html=1;fontSize=30;fontColor=#000000;" edge="1" parent="1" source="uQFEA6QVpBDMVat-9isN-128" target="uQFEA6QVpBDMVat-9isN-130">
          <mxGeometry relative="1" as="geometry" />
        </mxCell>
        <mxCell id="uQFEA6QVpBDMVat-9isN-128" value="&lt;span style=&quot;color: rgb(0 , 0 , 0) ; font-family: &amp;#34;helvetica&amp;#34; ; font-size: 12px ; font-style: normal ; font-weight: 400 ; letter-spacing: normal ; text-align: center ; text-indent: 0px ; text-transform: none ; word-spacing: 0px ; background-color: rgb(248 , 249 , 250) ; float: none ; display: inline&quot;&gt;MaxPooling(9*9)&lt;/span&gt;" style="rounded=1;whiteSpace=wrap;html=1;" vertex="1" parent="1">
          <mxGeometry x="318" y="1260" width="120" height="40" as="geometry" />
        </mxCell>
        <mxCell id="uQFEA6QVpBDMVat-9isN-130" value="&lt;span style=&quot;color: rgb(0 , 0 , 0) ; font-family: &amp;#34;helvetica&amp;#34; ; font-size: 12px ; font-style: normal ; font-weight: 400 ; letter-spacing: normal ; text-align: center ; text-indent: 0px ; text-transform: none ; word-spacing: 0px ; background-color: rgb(248 , 249 , 250) ; float: none ; display: inline&quot;&gt;Concate&lt;/span&gt;" style="rounded=1;whiteSpace=wrap;html=1;" vertex="1" parent="1">
          <mxGeometry x="480" y="1260" width="120" height="40" as="geometry" />
        </mxCell>
        <mxCell id="uQFEA6QVpBDMVat-9isN-133" style="edgeStyle=orthogonalEdgeStyle;rounded=0;orthogonalLoop=1;jettySize=auto;html=1;entryX=0.5;entryY=1;entryDx=0;entryDy=0;fontSize=30;fontColor=#000000;" edge="1" parent="1" source="uQFEA6QVpBDMVat-9isN-129" target="uQFEA6QVpBDMVat-9isN-130">
          <mxGeometry relative="1" as="geometry" />
        </mxCell>
        <mxCell id="uQFEA6QVpBDMVat-9isN-129" value="&lt;span style=&quot;color: rgb(0 , 0 , 0) ; font-family: &amp;#34;helvetica&amp;#34; ; font-size: 12px ; font-style: normal ; font-weight: 400 ; letter-spacing: normal ; text-align: center ; text-indent: 0px ; text-transform: none ; word-spacing: 0px ; background-color: rgb(248 , 249 , 250) ; float: none ; display: inline&quot;&gt;MaxPooling(5*5)&lt;/span&gt;" style="rounded=1;whiteSpace=wrap;html=1;" vertex="1" parent="1">
          <mxGeometry x="318" y="1320" width="120" height="40" as="geometry" />
        </mxCell>
        <mxCell id="uQFEA6QVpBDMVat-9isN-134" value="Yolov4 network structure" style="text;html=1;align=center;verticalAlign=middle;resizable=0;points=[];autosize=1;fontColor=#000000;fontSize=40;" vertex="1" parent="1">
          <mxGeometry x="550" y="520" width="450" height="50" as="geometry" />
        </mxCell>
        <mxCell id="uQFEA6QVpBDMVat-9isN-135" value="made by mikaa&lt;br style=&quot;font-size: 20px;&quot;&gt;&lt;br style=&quot;font-size: 20px;&quot;&gt;liu3612162@163.com" style="text;html=1;align=center;verticalAlign=middle;resizable=0;points=[];autosize=1;fontColor=#000000;fontSize=20;" vertex="1" parent="1">
          <mxGeometry x="660" y="580" width="210" height="80" as="geometry" />
        </mxCell>
        <mxCell id="uQFEA6QVpBDMVat-9isN-147" value="CSPDarknet53" style="text;html=1;align=center;verticalAlign=middle;resizable=0;points=[];autosize=1;fontColor=#000000;fontSize=20;" vertex="1" parent="1">
          <mxGeometry x="50" y="145" width="150" height="30" as="geometry" />
        </mxCell>
      </root>
    </mxGraphModel>
  </diagram>
</mxfile>
